<svg width="351" height="72" viewBox="0 0 351 72" fill="none" xmlns="http://www.w3.org/2000/svg">
<path fill-rule="evenodd" clip-rule="evenodd" d="M36.5 72C56.6584 72 73 55.8823 73 36C73 16.1177 56.6584 0 36.5 0C16.3416 0 0 16.1177 0 36C0 55.8823 16.3416 72 36.5 72ZM19.2941 64.8122L18.0702 64.0845L13.3125 60.4606L8.76236 55.0387L7.96593 53.7715C4.60716 48.4306 2.83362 42.2601 2.83617 35.9243C2.8438 17.4332 17.8921 2.38998 36.3959 2.38998C45.3552 2.39253 53.7801 5.88616 60.1134 12.2246C66.4467 18.563 69.9327 26.9904 69.9302 35.9497C69.9225 54.4408 54.8717 69.4865 36.3832 69.4865H36.3679C30.3501 69.484 24.4468 67.8682 19.2941 64.8122Z" fill="white"/>
<path fill-rule="evenodd" clip-rule="evenodd" d="M26.4227 18.764C25.6031 16.7992 24.7734 17.0661 24.1523 17.0356C23.5644 17.0051 22.8925 17 22.2205 17C21.546 17 20.4541 17.2516 19.5302 18.2608C18.6063 19.2673 16 21.7049 16 26.6615C16 31.6181 19.6142 36.4069 20.1182 37.0805C20.6221 37.7516 27.2321 47.924 37.3493 52.2858C39.7571 53.3229 41.6355 53.9431 43.1015 54.4082C45.5169 55.1733 47.716 55.0666 49.4544 54.8073C51.3938 54.5175 55.4229 52.3697 56.2628 50.0185C57.1053 47.6647 57.1053 45.6491 56.8533 45.2297C56.6013 44.8102 55.9269 44.5561 54.919 44.0528C53.9111 43.5495 48.9504 41.1119 48.0265 40.7764C47.1 40.4408 46.4281 40.2731 45.7562 41.2796C45.0842 42.2887 43.1499 44.5561 42.5619 45.2297C41.974 45.9007 41.386 45.9846 40.3756 45.4813C39.3677 44.978 36.1174 43.913 32.264 40.4815C29.2657 37.8126 27.2422 34.5133 26.6517 33.5067C26.0638 32.4976 26.5907 31.9536 27.0946 31.4503C27.5477 31.0004 28.1051 30.2735 28.609 29.6863C29.113 29.0991 29.281 28.6772 29.6169 28.0062C29.9529 27.3326 29.7849 26.7454 29.5329 26.2421C29.281 25.7363 27.2626 20.7797 26.4227 18.764" fill="white"/>
<path d="M100.8 46.288C97.872 46.288 95.64 45.184 94.104 42.976C92.592 40.744 91.836 37.48 91.836 33.184C91.836 28.888 92.592 25.636 94.104 23.428C95.616 21.196 97.848 20.08 100.8 20.08C103.752 20.08 105.984 21.196 107.496 23.428C109.008 25.636 109.764 28.876 109.764 33.148C109.764 37.444 108.996 40.708 107.46 42.94C105.948 45.172 103.728 46.288 100.8 46.288ZM100.8 43.804C102.84 43.804 104.34 42.94 105.3 41.212C106.284 39.484 106.776 36.796 106.776 33.148C106.776 29.5 106.284 26.836 105.3 25.156C104.34 23.452 102.84 22.6 100.8 22.6C98.76 22.6 97.248 23.452 96.264 25.156C95.304 26.86 94.824 29.524 94.824 33.148C94.824 36.796 95.304 39.484 96.264 41.212C97.248 42.94 98.76 43.804 100.8 43.804ZM123.214 46.288C120.118 46.288 117.73 45.22 116.05 43.084C114.37 40.924 113.53 37.84 113.53 33.832C113.53 30.928 113.914 28.456 114.682 26.416C115.474 24.352 116.602 22.78 118.066 21.7C119.554 20.62 121.33 20.08 123.394 20.08C124.882 20.08 126.322 20.356 127.714 20.908C129.106 21.436 130.342 22.216 131.422 23.248L130.306 25.516C129.106 24.484 127.942 23.74 126.814 23.284C125.71 22.804 124.594 22.564 123.466 22.564C121.258 22.564 119.542 23.548 118.318 25.516C117.094 27.46 116.482 30.22 116.482 33.796V36.892L116.05 35.92C116.242 34.696 116.686 33.64 117.382 32.752C118.078 31.84 118.942 31.144 119.974 30.664C121.03 30.16 122.194 29.908 123.466 29.908C125.05 29.908 126.442 30.256 127.642 30.952C128.842 31.624 129.778 32.572 130.45 33.796C131.122 35.02 131.458 36.436 131.458 38.044C131.458 39.628 131.098 41.044 130.378 42.292C129.682 43.54 128.71 44.524 127.462 45.244C126.238 45.94 124.822 46.288 123.214 46.288ZM123.07 43.804C124.702 43.804 126.022 43.288 127.03 42.256C128.038 41.2 128.542 39.808 128.542 38.08C128.542 36.376 128.038 35.008 127.03 33.976C126.022 32.92 124.69 32.392 123.034 32.392C121.93 32.392 120.946 32.644 120.082 33.148C119.218 33.628 118.546 34.3 118.066 35.164C117.586 36.004 117.346 36.976 117.346 38.08C117.346 39.232 117.586 40.24 118.066 41.104C118.546 41.944 119.218 42.604 120.082 43.084C120.946 43.564 121.942 43.804 123.07 43.804ZM156.131 46V24.076H157.031L146.375 39.448L146.411 37.972H162.971V40.42H144.323V38.188L156.671 20.368H159.083V46H156.131ZM177.717 46V24.076H178.617L167.961 39.448L167.997 37.972H184.557V40.42H165.909V38.188L178.257 20.368H180.669V46H177.717ZM198.105 46V43.768L207.069 33.832C208.269 32.488 209.145 31.276 209.697 30.196C210.249 29.116 210.525 28.036 210.525 26.956C210.525 25.54 210.117 24.46 209.301 23.716C208.485 22.948 207.321 22.564 205.809 22.564C204.561 22.564 203.337 22.816 202.137 23.32C200.937 23.8 199.737 24.532 198.537 25.516L197.421 23.248C198.429 22.288 199.701 21.52 201.237 20.944C202.773 20.368 204.321 20.08 205.881 20.08C207.441 20.08 208.785 20.356 209.913 20.908C211.065 21.436 211.953 22.204 212.577 23.212C213.201 24.22 213.513 25.42 213.513 26.812C213.513 28.276 213.177 29.692 212.505 31.06C211.857 32.404 210.765 33.916 209.229 35.596L200.589 44.956L200.373 43.516H214.593V46H198.105ZM227.503 46.252C225.631 46.252 224.011 45.976 222.643 45.424C221.275 44.848 220.207 44.032 219.439 42.976C218.695 41.92 218.323 40.66 218.323 39.196C218.323 37.42 218.923 35.944 220.123 34.768C221.323 33.592 222.931 32.86 224.947 32.572L224.767 33.112C222.895 32.752 221.443 32.02 220.411 30.916C219.403 29.812 218.899 28.468 218.899 26.884C218.899 25.492 219.259 24.292 219.979 23.284C220.723 22.252 221.731 21.46 223.003 20.908C224.299 20.356 225.799 20.08 227.503 20.08C229.207 20.08 230.695 20.356 231.967 20.908C233.263 21.46 234.271 22.252 234.991 23.284C235.735 24.292 236.107 25.492 236.107 26.884C236.107 28.468 235.591 29.824 234.559 30.952C233.551 32.056 232.123 32.776 230.275 33.112L230.059 32.572C232.147 32.86 233.767 33.604 234.919 34.804C236.095 35.98 236.683 37.444 236.683 39.196C236.683 40.66 236.299 41.92 235.531 42.976C234.787 44.032 233.731 44.848 232.363 45.424C230.995 45.976 229.375 46.252 227.503 46.252ZM227.503 43.804C229.519 43.804 231.067 43.396 232.147 42.58C233.227 41.764 233.767 40.576 233.767 39.016C233.767 37.552 233.179 36.412 232.003 35.596C230.827 34.756 229.327 34.24 227.503 34.048C225.679 34.24 224.179 34.756 223.003 35.596C221.827 36.412 221.239 37.552 221.239 39.016C221.239 40.576 221.779 41.764 222.859 42.58C223.939 43.396 225.487 43.804 227.503 43.804ZM227.503 31.996C229.183 31.804 230.539 31.288 231.571 30.448C232.627 29.608 233.155 28.492 233.155 27.1C233.155 25.66 232.651 24.544 231.643 23.752C230.659 22.936 229.279 22.528 227.503 22.528C225.727 22.528 224.335 22.936 223.327 23.752C222.343 24.544 221.851 25.66 221.851 27.1C221.851 28.492 222.367 29.608 223.399 30.448C224.455 31.288 225.823 31.804 227.503 31.996ZM258.476 46.252C256.604 46.252 254.984 45.976 253.616 45.424C252.248 44.848 251.18 44.032 250.412 42.976C249.668 41.92 249.296 40.66 249.296 39.196C249.296 37.42 249.896 35.944 251.096 34.768C252.296 33.592 253.904 32.86 255.92 32.572L255.74 33.112C253.868 32.752 252.416 32.02 251.384 30.916C250.376 29.812 249.872 28.468 249.872 26.884C249.872 25.492 250.232 24.292 250.952 23.284C251.696 22.252 252.704 21.46 253.976 20.908C255.272 20.356 256.772 20.08 258.476 20.08C260.18 20.08 261.668 20.356 262.94 20.908C264.236 21.46 265.244 22.252 265.964 23.284C266.708 24.292 267.08 25.492 267.08 26.884C267.08 28.468 266.564 29.824 265.532 30.952C264.524 32.056 263.096 32.776 261.248 33.112L261.032 32.572C263.12 32.86 264.74 33.604 265.892 34.804C267.068 35.98 267.656 37.444 267.656 39.196C267.656 40.66 267.272 41.92 266.504 42.976C265.76 44.032 264.704 44.848 263.336 45.424C261.968 45.976 260.348 46.252 258.476 46.252ZM258.476 43.804C260.492 43.804 262.04 43.396 263.12 42.58C264.2 41.764 264.74 40.576 264.74 39.016C264.74 37.552 264.152 36.412 262.976 35.596C261.8 34.756 260.3 34.24 258.476 34.048C256.652 34.24 255.152 34.756 253.976 35.596C252.8 36.412 252.212 37.552 252.212 39.016C252.212 40.576 252.752 41.764 253.832 42.58C254.912 43.396 256.46 43.804 258.476 43.804ZM258.476 31.996C260.156 31.804 261.512 31.288 262.544 30.448C263.6 29.608 264.128 28.492 264.128 27.1C264.128 25.66 263.624 24.544 262.616 23.752C261.632 22.936 260.252 22.528 258.476 22.528C256.7 22.528 255.308 22.936 254.3 23.752C253.316 24.544 252.824 25.66 252.824 27.1C252.824 28.492 253.34 29.608 254.372 30.448C255.428 31.288 256.796 31.804 258.476 31.996ZM280.062 46.288C277.134 46.288 274.902 45.184 273.366 42.976C271.854 40.744 271.098 37.48 271.098 33.184C271.098 28.888 271.854 25.636 273.366 23.428C274.878 21.196 277.11 20.08 280.062 20.08C283.014 20.08 285.246 21.196 286.758 23.428C288.27 25.636 289.026 28.876 289.026 33.148C289.026 37.444 288.258 40.708 286.722 42.94C285.21 45.172 282.99 46.288 280.062 46.288ZM280.062 43.804C282.102 43.804 283.602 42.94 284.562 41.212C285.546 39.484 286.038 36.796 286.038 33.148C286.038 29.5 285.546 26.836 284.562 25.156C283.602 23.452 282.102 22.6 280.062 22.6C278.022 22.6 276.51 23.452 275.526 25.156C274.566 26.86 274.086 29.524 274.086 33.148C274.086 36.796 274.566 39.484 275.526 41.212C276.51 42.94 278.022 43.804 280.062 43.804ZM307.47 46H304.302L316.866 21.664L317.118 22.852H302.574V20.368H319.494V22.564L307.47 46ZM324.808 46V43.768L333.772 33.832C334.972 32.488 335.848 31.276 336.4 30.196C336.952 29.116 337.228 28.036 337.228 26.956C337.228 25.54 336.82 24.46 336.004 23.716C335.188 22.948 334.024 22.564 332.512 22.564C331.264 22.564 330.04 22.816 328.84 23.32C327.64 23.8 326.44 24.532 325.24 25.516L324.124 23.248C325.132 22.288 326.404 21.52 327.94 20.944C329.476 20.368 331.024 20.08 332.584 20.08C334.144 20.08 335.488 20.356 336.616 20.908C337.768 21.436 338.656 22.204 339.28 23.212C339.904 24.22 340.216 25.42 340.216 26.812C340.216 28.276 339.88 29.692 339.208 31.06C338.56 32.404 337.468 33.916 335.932 35.596L327.292 44.956L327.076 43.516H341.296V46H324.808Z" fill="white"/>
</svg>
